<?xml version="1.0" encoding="UTF-8"?>
<svg width="69px" height="80px" viewBox="0 0 69 80" version="1.1" xmlns="http://www.w3.org/2000/svg" xmlns:xlink="http://www.w3.org/1999/xlink">
    <!-- Generator: Sketch 49.3 (51167) - http://www.bohemiancoding.com/sketch -->
    <title>noun_1397709_cc</title>
    <desc>Created with Sketch.</desc>
    <defs></defs>
    <g id="Page-1" stroke="none" stroke-width="1" fill="none" fill-rule="evenodd">
        <g id="noun_1397709_cc" transform="translate(0.000000, -1.000000)" fill="#000000" fill-rule="nonzero">
            <g id="Group">
                <path d="M68.651,22.271 C67.807,20.026 65.82,18.97 63.944,18.997 C62.883,19.001 61.826,19.29 60.905,19.819 C60.407,16.873 57.359,15.011 54.334,15.001 C52.354,14.97 50.279,15.854 48.865,17.773 C47.96,17.414 46.992,17.217 46.026,17.215 C44.458,17.215 42.874,17.69 41.652,18.764 C40.653,19.634 39.958,20.915 39.736,22.496 C37.866,22.106 36.868,22.486 36.417,22.858 C35.732,23.424 35.318,24.532 36.152,25.71 C33.332,26.174 31.505,28.726 31.5,31.218 C31.48,32.802 32.314,34.452 34.043,35.314 C34.688,35.643 35.397,35.8 36.108,35.8 C36.108,35.8 36.689,35.769 36.963,35.72 L37.165,33.723 C36.819,33.849 35.666,34.066 34.892,33.636 C33.796,33.03 33.393,32.214 33.373,31.218 C33.376,29.455 34.894,27.521 37.023,27.516 C37.181,27.516 37.944,27.645 38.408,27.144 C38.65,26.882 38.625,26.469 38.451,26.156 C37.885,25.159 37.465,24.453 37.697,24.269 C38.061,23.863 41.94,24.95 44.27,24.962 C45.314,24.959 46.365,24.813 47.294,24.274 C48.231,23.744 48.803,22.741 49.246,21.489 C50.443,18.114 52.189,16.925 54.332,16.881 C55.569,16.877 56.812,17.316 57.7,18.005 C58.591,18.705 59.333,20.314 58.785,21.921 C58.625,22.394 58.764,22.915 59.205,23.147 C59.644,23.378 60.192,23.221 60.445,22.79 C61.093,21.659 62.575,20.865 63.942,20.876 C65.214,20.906 66.365,21.4 66.904,22.949 C67.492,24.649 66.393,26.902 65.133,27.85 C65.757,28.231 66.093,29.613 66.104,29.675 C67.958,28.519 68.959,26.16 68.999,24.135 C69,23.521 68.891,22.888 68.651,22.271 Z M46.357,22.647 C45.858,22.943 43.942,23.378 41.601,22.802 C41.96,20.18 43.836,19.162 46.026,19.095 C46.68,19.093 47.333,19.213 47.943,19.426 C47.529,20.894 46.849,22.35 46.357,22.647 Z M63.759,29.639 C63.68,29.22 63.304,28.912 62.861,28.912 L40.421,28.912 C39.979,28.912 39.602,29.22 39.526,29.639 C38.708,34.092 38.422,38.156 38.422,42.649 C38.457,49.853 41.963,55.637 41.929,62.17 C41.929,62.491 41.919,62.812 41.904,63.141 C41.717,66.786 41.08,69.803 41.073,72.305 C41.052,74.307 41.549,76.177 43.287,77.361 C44.996,78.522 47.558,78.99 51.6,79.001 L51.613,79.001 C51.621,79.001 51.623,79.001 51.623,79.001 L51.623,78.999 L51.641,79 C55.746,78.989 58.343,78.511 60.068,77.325 C61.818,76.115 62.307,74.217 62.291,72.179 C62.286,69.702 61.682,66.724 61.5,63.141 C61.485,62.804 61.475,62.471 61.475,62.142 C61.441,55.608 64.828,49.833 64.859,42.649 C64.858,38.156 64.576,34.092 63.759,29.639 Z M59.464,62.023 C59.464,62.377 59.474,62.736 59.49,63.093 C59.68,66.751 60.268,69.751 60.262,71.92 C60.243,73.757 59.905,74.816 58.827,75.589 C57.729,76.383 55.521,76.914 51.676,76.911 C51.646,76.91 51.626,76.91 51.623,76.91 C47.802,76.921 45.603,76.397 44.516,75.619 C43.45,74.862 43.118,73.839 43.1,72.042 C43.093,69.862 43.712,66.819 43.908,63.093 C43.926,62.742 43.933,62.396 43.933,62.053 C43.898,55.015 40.475,49.32 40.509,42.806 C40.509,38.689 40.75,34.999 41.43,30.999 L61.85,30.999 C62.531,34.999 62.771,38.689 62.771,42.806 C62.806,49.317 59.5,55.006 59.464,62.023 Z M43.241,33.086 C42.765,36.806 42.598,39.303 42.598,42.985 C42.584,45.923 43.34,48.732 44.144,51.708 C45.002,54.896 45.873,57.758 45.91,61.931 C45.948,65.929 45.099,70.822 45.102,71.796 C45.089,73.471 47.619,74.825 51.641,74.825 C55.663,74.825 58.193,73.413 58.18,71.796 C58.184,70.821 57.333,65.929 57.371,61.931 C57.409,57.758 58.278,54.897 59.138,51.708 C59.942,48.732 60.698,45.923 60.684,42.985 C60.684,39.303 60.483,36.189 60.04,33.086 L43.241,33.086 Z" id="Shape"></path>
                <path d="M10.042,10 L10.042,10.002 L10.042,10 Z M21.947,33.528 L19.086,10.878 C19.342,10.595 19.596,10.159 19.634,9.502 C19.632,9.047 19.539,8.587 19.243,8.178 C18.956,7.765 18.405,7.486 17.89,7.5 L9.106,7.5 C8.594,7.486 8.04,7.765 7.755,8.178 C7.46,8.589 7.367,9.047 7.365,9.502 C7.403,10.168 7.66,10.613 7.913,10.899 L5.051,33.528 C2.721,35.816 -0.01,38.839 -3.38813179e-21,43.997 L-3.38813179e-21,75.999 C0.004,78.919 2.024,80.691 4.041,80.962 L4.07,81 L22.427,81 C23.427,80.998 24.569,80.724 25.497,79.901 C26.427,79.079 27.009,77.74 26.999,75.999 L26.999,43.999 C27.004,38.839 24.277,35.816 21.947,33.528 Z M24.999,75.999 C24.991,77.342 24.609,78.003 24.165,78.41 C23.715,78.816 23.072,78.999 22.426,78.999 L4.567,78.999 C3.431,78.972 2.014,78.112 2,75.999 L2,43.999 C2.022,39.436 4.33,37.06 6.7,34.713 L6.948,34.469 L10.042,10.001 C10.041,10 9.375,9.501 9.365,9.501 L17.625,9.5 L16.95,10 L20.051,34.47 L20.299,34.714 C22.669,37.061 24.974,39.437 24.999,44.002 L24.999,75.999 Z M13.5,44 C7.975,44 3.5,49.372 3.5,55.998 C3.5,62.628 7.974,68 13.5,68 C19.021,68 23.5,62.628 23.5,55.998 C23.5,49.372 19.021,44 13.5,44 Z M13.5,66.001 C9.081,66.001 5.5,61.522 5.5,56 C5.5,50.479 9.081,46 13.5,46 C17.916,46 21.5,50.479 21.5,56 C21.5,61.522 17.916,66.001 13.5,66.001 Z M13.5,48.5 C10.323,48.5 7.75,51.856 7.75,56 C7.75,60.143 10.323,63.5 13.5,63.5 C16.675,63.5 19.25,60.143 19.25,56 C19.25,51.856 16.674,48.5 13.5,48.5 Z M16.697,20.174 L9.91,24.041 L9.255,29.218 L17.186,24.559 L16.697,20.174 Z M19.094,5.5 C19.094,5.5 19.409,2.438 18.004,1.562 C18.004,1.562 16.125,0.999 13.5,0.999 C10.875,0.999 8.995,1.563 8.995,1.563 C7.589,2.438 7.905,5.5 7.905,5.5 L19.094,5.5 Z" id="Shape"></path>
            </g>
        </g>
    </g>
</svg>