<?xml version="1.0" encoding="UTF-8"?>
<svg width="71px" height="81px" viewBox="0 0 71 81" version="1.1" xmlns="http://www.w3.org/2000/svg" xmlns:xlink="http://www.w3.org/1999/xlink">
    <!-- Generator: Sketch 49.3 (51167) - http://www.bohemiancoding.com/sketch -->
    <title>noun_47310_cc</title>
    <desc>Created with Sketch.</desc>
    <defs></defs>
    <g id="Page-1" stroke="none" stroke-width="1" fill="none" fill-rule="evenodd">
        <g id="noun_47310_cc" transform="translate(0.000000, -1.000000)" fill="#000000" fill-rule="nonzero">
            <g id="Group">
                <path d="M69.4,35.8 C66.6,26.7 60.5,19.3 52.1,14.9 C45.4,11.3 37.8,10 30.4,11.1 L27.5,1.7 C27.3,1.2 26.8,0.9 26.3,1 C13.8,4.8 4.8,14.5 2.1,27 C2,27.5 2.3,28.1 2.9,28.2 L12.1,30.3 L12.1,34 C12.1,35.5 13.6,36.5 15,36.5 C16.5,36.5 17.5,35.5 17.5,34 L17.5,31.5 L20,32.1 L20,34.9 C20,36.4 21.5,37.4 22.9,37.4 C23.5,37.4 24.1,37.2 24.6,36.8 C25,36.5 25.4,35.9 25.4,34.9 L25.4,33.3 L31,34.6 L34,44.4 L1.5,36.6 L1.3,37.6 C-0.3,43.9 -0.1,50.4 1.8,56.6 C6.5,71.8 20.5,81.7 35.7,81.7 C39.1,81.7 42.6,81.2 46.1,80.1 C64.6,74.3 75.2,54.4 69.4,35.8 Z M51.2,16.6 C53.5,17.8 55.7,19.4 57.7,21.1 L55.3,23.7 C53.6,22.2 51.7,20.9 49.6,19.8 C44.2,16.9 38.1,15.8 32.2,16.5 L31.1,13 C38,12 45,13.3 51.2,16.6 Z M63,51.3 L37.8,45.2 L55.4,26.4 C58.6,29.6 60.9,33.5 62.3,37.9 C63.6,42.4 63.8,46.9 63,51.3 Z M35.1,48.1 L42.7,73.1 C33.5,75.6 24,73.1 17.2,67.2 L35.1,48.1 Z M36.9,47.1 L62.5,53.3 C62,55.3 61.2,57.3 60.2,59.2 C56.9,65.5 51.4,70.2 44.7,72.5 L36.9,47.1 Z M25.4,31.3 L25.4,30.9 C25.4,30.3 25,29.9 24.4,29.9 C24.1,29.9 23.8,30.1 23.6,30.3 C23.5,30.5 23.4,30.6 23.4,30.8 C23.4,30.8 23.4,30.8 23.4,30.8 L23.4,31.8 L23.4,32.8 L23.4,34.8 C23.4,34.9 23.4,35.1 23.3,35.2 C23.2,35.3 23.1,35.3 22.9,35.3 C22.4,35.3 22,35 22,34.8 L22,32.4 L22,31.4 L22,30.4 L22,29 L22,28.2 C22,27.6 21.6,27.2 21,27.2 C20.4,27.2 20,27.6 20,28.2 L20,30 L17.5,29.4 L17.5,28 C17.5,27.4 17.1,27 16.5,27 C16.2,27 15.9,27.2 15.7,27.4 C15.6,27.6 15.5,27.8 15.5,28 L15.5,29 L15.5,30 L15.5,31 L15.5,34 C15.5,34.1 15.5,34.3 15.4,34.4 C15.3,34.5 15.2,34.5 15,34.5 C14.5,34.5 14.1,34.2 14.1,34 L14.1,30.7 L14.1,29.7 L14.1,28.7 L14.1,26.3 L14.1,25.5 C14.1,24.9 13.7,24.5 13.1,24.5 C12.5,24.5 12.1,24.9 12.1,25.5 L12.1,28.2 L9.8,27.7 C12.2,18.8 18.9,11.6 27.6,8.6 L28.5,11.4 L29.1,13.3 L30.2,16.7 L30.8,18.6 L35.4,33.5 L32.6,32.9 L30.3,32.4 L25.4,31.3 Z M4.3,26.4 C7,15.5 15,6.9 26,3.2 L27.1,6.6 C17.7,9.8 10.5,17.6 7.9,27.2 L4.3,26.4 Z M33.2,35.1 L36.5,35.9 C36.6,35.9 36.6,35.9 36.7,35.9 C37,35.9 37.2,35.8 37.4,35.6 C37.6,35.3 37.7,35 37.6,34.6 L36.2,30.2 C36.9,30.1 37.4,29.5 37.4,28.8 C37.4,28 36.8,27.4 36,27.4 C35.8,27.4 35.6,27.5 35.4,27.5 L32.6,18.4 C38,17.8 43.5,18.9 48.5,21.5 C50.4,22.5 52.2,23.7 53.8,25.1 L36,44.2 L33.2,35.1 Z M15.8,65.8 C12.7,62.7 10.3,58.8 8.9,54.3 C7.5,49.7 7.3,44.9 8.3,40.2 L33.9,46.4 L15.8,65.8 Z M3.6,55.9 C1.9,50.4 1.7,44.5 2.9,38.9 L6.4,39.7 C5.3,44.7 5.5,49.9 7,54.8 C8.5,59.6 11.1,63.8 14.4,67.1 L12,69.8 C8.1,66 5.2,61.3 3.6,55.9 Z M19.9,75.7 C17.6,74.5 15.4,72.9 13.4,71.2 L15.9,68.6 C21.3,73.3 28.3,76 35.6,76 C38.2,76 40.8,75.6 43.4,74.9 L44.5,78.3 C36.1,80.7 27.5,79.7 19.9,75.7 Z M46.3,77.8 L45.3,74.4 C52.5,71.9 58.4,66.9 62,60.2 C63.1,58.1 63.9,56 64.5,53.8 L68,54.6 C65.1,65.1 57.3,74.1 46.3,77.8 Z M68.4,52.6 L64.9,51.8 C65.8,47.1 65.6,42.1 64.1,37.4 C62.6,32.7 60.1,28.5 56.7,25 L59.1,22.4 C63,26.2 65.8,31 67.5,36.3 C69.2,41.8 69.4,47.4 68.4,52.6 Z" id="Shape"></path>
                <circle id="Oval" cx="17.6" cy="23.3" r="1.7"></circle>
                <path d="M29.5,26.2 C29.1,26.2 28.8,26.4 28.6,26.7 C28.4,26.9 28.3,27.2 28.3,27.5 C28.3,28.1 28.7,28.5 29.2,28.7 C29.3,28.7 29.4,28.8 29.5,28.8 C30.2,28.8 30.7,28.3 30.7,27.6 C30.7,26.7 30.2,26.2 29.5,26.2 Z" id="Shape"></path>
                <path d="M24.8,14.6 C24.5,14.5 24.2,14.4 23.8,14.4 C21.8,14.4 20.2,16 20.2,18 C20.2,20 21.8,21.6 23.8,21.6 C24.9,21.6 25.9,21.1 26.6,20.3 C26.9,19.9 27.1,19.5 27.3,19.1 C27.4,18.8 27.5,18.4 27.5,18 C27.5,17.8 27.5,17.6 27.4,17.4 C27.2,16 26.2,14.9 24.8,14.6 Z" id="Shape"></path>
                <circle id="Oval" cx="43.6" cy="26.4" r="3.1"></circle>
                <circle id="Oval" cx="52.6" cy="44.4" r="2.4"></circle>
                <circle id="Oval" cx="16.5" cy="54.6" r="3.7"></circle>
                <circle id="Oval" cx="49" cy="64.8" r="2"></circle>
                <circle id="Oval" cx="54.7" cy="34.9" r="4.4"></circle>
                <circle id="Oval" cx="44.9" cy="42.6" r="1.8"></circle>
                <circle id="Oval" cx="32.8" cy="55.5" r="1.4"></circle>
                <circle id="Oval" cx="28.9" cy="61.6" r="2.5"></circle>
                <circle id="Oval" cx="35.2" cy="68.3" r="3.6"></circle>
                <circle id="Oval" cx="24.4" cy="48.6" r="1.4"></circle>
                <circle id="Oval" cx="12" cy="46.7" r="1.6"></circle>
                <circle id="Oval" cx="46.6" cy="55.5" r="3.6"></circle>
            </g>
        </g>
    </g>
</svg>