<?xml version="1.0" encoding="UTF-8"?>
<svg width="91px" height="33px" viewBox="0 0 91 33" version="1.1" xmlns="http://www.w3.org/2000/svg" xmlns:xlink="http://www.w3.org/1999/xlink">
    <!-- Generator: Sketch 49.3 (51167) - http://www.bohemiancoding.com/sketch -->
    <title>noun_98633_cc</title>
    <desc>Created with Sketch.</desc>
    <defs></defs>
    <g id="Page-1" stroke="none" stroke-width="1" fill="none" fill-rule="evenodd">
        <g id="noun_98633_cc" fill="#000000" fill-rule="nonzero">
            <g id="Group">
                <path d="M83.673,28.114 L7.39,28.114 C6.578,28.114 5.92,27.456 5.92,26.645 C5.92,25.833 6.578,25.174 7.39,25.174 L83.673,25.174 C84.485,25.174 85.143,25.832 85.143,26.645 C85.143,27.456 84.484,28.114 83.673,28.114 Z" id="Shape"></path>
                <path d="M89.237,32.935 L1.824,32.935 C1.012,32.935 0.354,32.277 0.354,31.466 C0.354,30.654 1.012,29.995 1.824,29.995 L89.237,29.995 C90.049,29.995 90.707,30.653 90.707,31.466 C90.707,32.276 90.049,32.935 89.237,32.935 Z" id="Shape"></path>
                <path d="M22.075,27.03 C17.68,27.03 14.105,23.456 14.105,19.061 C14.105,14.666 17.68,11.09 22.075,11.09 C26.47,11.09 30.045,14.666 30.045,19.061 C30.045,23.456 26.47,27.03 22.075,27.03 Z M22.075,14.03 C19.302,14.03 17.045,16.288 17.045,19.061 C17.045,21.834 19.302,24.09 22.075,24.09 C24.848,24.09 27.105,21.834 27.105,19.061 C27.105,16.288 24.849,14.03 22.075,14.03 Z" id="Shape"></path>
                <path d="M53.587,26.548 L38.091,26.548 C35.648,26.548 33.66,24.562 33.66,22.118 L33.66,20.794 C33.66,18.351 35.647,16.362 38.091,16.362 L53.587,16.362 C56.03,16.362 58.018,18.35 58.018,20.794 L58.018,22.118 C58.018,24.562 56.03,26.548 53.587,26.548 Z M38.091,19.302 C37.269,19.302 36.6,19.972 36.6,20.794 L36.6,22.118 C36.6,22.94 37.269,23.608 38.091,23.608 L53.587,23.608 C54.409,23.608 55.078,22.94 55.078,22.118 L55.078,20.794 C55.078,19.972 54.409,19.302 53.587,19.302 L38.091,19.302 Z" id="Shape"></path>
                <path d="M47.619,18.032 C47.597,18.032 47.574,18.032 47.552,18.03 C46.74,17.993 46.114,17.305 46.15,16.495 C46.152,16.464 46.157,16.413 46.162,16.366 C46.125,14.727 44.78,13.405 43.133,13.405 C41.485,13.405 40.14,14.727 40.104,16.368 C40.111,16.432 40.115,16.497 40.115,16.561 C40.115,17.373 39.457,18.032 38.645,18.032 C37.869,18.032 37.233,17.43 37.179,16.667 C37.169,16.589 37.163,16.513 37.163,16.435 C37.163,13.144 39.841,10.466 43.133,10.466 C46.425,10.466 49.103,13.144 49.103,16.435 C49.103,16.501 49.093,16.623 49.083,16.701 C49.011,17.454 48.377,18.032 47.619,18.032 Z" id="Shape"></path>
                <path d="M68.719,18.567 C68.379,18.567 68.04,18.45 67.765,18.215 C67.711,18.174 67.662,18.133 67.615,18.088 C66.454,16.928 65.833,15.428 65.833,13.834 C65.833,12.238 66.454,10.74 67.582,9.611 C68.709,8.484 70.209,7.863 71.803,7.863 C73.398,7.863 74.897,8.484 76.025,9.613 C76.072,9.66 76.161,9.763 76.201,9.816 C76.756,10.408 76.695,11.302 76.103,11.857 C75.509,12.414 74.549,12.347 73.995,11.755 C73.973,11.732 73.937,11.691 73.906,11.651 C72.727,10.526 70.789,10.561 69.661,11.69 C69.089,12.262 68.773,13.022 68.773,13.833 C68.773,14.616 69.07,15.356 69.609,15.923 C69.656,15.96 69.701,15.999 69.743,16.038 C70.326,16.602 70.342,17.534 69.777,18.118 C69.486,18.417 69.103,18.567 68.719,18.567 Z" id="Shape"></path>
                <path d="M62.575,26.78 C62.199,26.78 61.823,26.637 61.536,26.35 C60.962,25.776 60.962,24.844 61.536,24.272 L77.849,7.96 C78.423,7.386 79.353,7.386 79.927,7.96 C80.501,8.532 80.501,9.464 79.927,10.038 L63.614,26.351 C63.327,26.638 62.951,26.78 62.575,26.78 Z" id="Shape"></path>
                <path d="M75.263,26.718 C74.887,26.718 74.511,26.575 74.224,26.288 L68.536,20.6 C67.962,20.026 67.962,19.094 68.536,18.522 C69.11,17.948 70.04,17.948 70.614,18.522 L76.302,24.21 C76.876,24.782 76.876,25.714 76.302,26.288 C76.015,26.575 75.639,26.718 75.263,26.718 Z" id="Shape"></path>
                <path d="M76.949,26.407 C76.32,26.407 75.738,25.999 75.544,25.366 L72.794,16.366 C72.558,15.589 72.994,14.766 73.771,14.53 C74.545,14.296 75.369,14.729 75.607,15.507 L78.357,24.507 C78.593,25.282 78.157,26.105 77.38,26.343 C77.236,26.386 77.092,26.407 76.949,26.407 Z" id="Shape"></path>
                <path d="M22.176,13.53 C21.364,13.53 20.706,12.872 20.706,12.061 L20.706,1.481 C20.706,0.669 21.364,0.01 22.176,0.01 C22.988,0.01 23.646,0.668 23.646,1.481 L23.646,12.061 C23.646,12.872 22.987,13.53 22.176,13.53 Z" id="Shape"></path>
            </g>
        </g>
    </g>
</svg>