<?xml version="1.0" encoding="UTF-8"?>
<svg width="64px" height="64px" viewBox="0 0 64 64" version="1.1" xmlns="http://www.w3.org/2000/svg" xmlns:xlink="http://www.w3.org/1999/xlink">
    <!-- Generator: Sketch 49.3 (51167) - http://www.bohemiancoding.com/sketch -->
    <title>noun_1339118_cc</title>
    <desc>Created with Sketch.</desc>
    <defs></defs>
    <g id="Page-1" stroke="none" stroke-width="1" fill="none" fill-rule="evenodd">
        <g id="noun_1339118_cc" fill="#000000" fill-rule="nonzero">
            <path d="M63.999,25.388 L63.999,19.388 C63.999,17.949 63.155,16.628 61.684,15.765 L36.544,1.045 C35.372,0.362 33.903,0 32.296,0 C30.187,0 28.098,0.633 26.564,1.739 L10.629,13.27 C9.649,12.831 8.5,12.602 7.268,12.602 C5.349,12.602 3.457,13.173 2.077,14.167 C0.739,15.131 0.001,16.393 0.001,17.719 L0.001,23.719 C0.001,25.067 0.793,26.306 2.176,27.121 L5.12,28.845 C3.991,29.099 2.938,29.549 2.077,30.167 C0.739,31.131 0.001,32.393 0.001,33.718 L0.001,39.719 C0.001,41.067 0.793,42.306 2.176,43.121 L36.168,63.022 C37.301,63.68 38.705,64 40.14,64 C41.994,64 43.897,63.464 45.328,62.426 C46.578,61.518 47.3,60.35 47.382,59.114 C47.401,59.038 47.41,58.959 47.41,58.877 L47.41,55.618 L61.726,45.258 C63.191,44.194 63.998,42.82 63.998,41.389 L63.998,35.388 C63.998,33.949 63.154,32.629 61.683,31.765 L59.791,30.657 L61.726,29.257 C63.191,28.193 63.999,26.819 63.999,25.388 Z M3.246,15.79 C4.293,15.035 5.76,14.602 7.268,14.602 C8.391,14.602 9.438,14.851 10.219,15.304 C10.561,15.503 10.988,15.481 11.307,15.249 L27.734,3.36 C28.934,2.496 30.597,2 32.296,2 C33.531,2 34.683,2.274 35.535,2.772 L60.673,17.491 C61.528,17.993 61.999,18.667 61.999,19.389 C61.999,20.162 61.484,20.962 60.553,21.639 L44.124,33.527 C43.851,33.725 43.695,34.048 43.711,34.384 C43.727,34.72 43.911,35.028 44.202,35.198 C44.968,35.649 45.39,36.246 45.39,36.877 C45.39,37.532 44.939,38.236 44.154,38.808 C43.111,39.564 41.647,39.997 40.136,39.997 C39.009,39.997 37.956,39.747 37.175,39.294 L3.188,19.396 C2.422,18.945 2,18.349 2,17.718 C2.001,17.063 2.455,16.36 3.246,15.79 Z M3.188,25.396 C2.422,24.945 2,24.349 2,23.719 L2,21.006 C2.059,21.044 2.113,21.086 2.175,21.122 L36.167,41.024 C37.267,41.662 38.639,41.999 40.135,41.999 C42.058,41.999 43.949,41.427 45.327,40.428 C45.356,40.407 45.381,40.384 45.409,40.363 L45.409,42.677 C45.395,42.742 45.388,42.81 45.388,42.879 C45.388,43.534 44.937,44.238 44.152,44.81 C42.269,46.176 39.072,46.397 37.173,45.296 L3.188,25.396 Z M30.146,43.498 L13.46,43.498 L13.46,33.728 L30.146,43.498 Z M8.226,32.922 C7.687,32.512 7.427,31.587 7.455,30.212 L11.46,32.557 L11.46,41.063 C11.119,41.077 10.72,41.066 10.266,40.999 C8.758,40.777 8.314,40.373 8.184,40.151 C7.9,39.668 8.289,38.643 8.632,37.739 C9.194,36.259 9.964,34.232 8.226,32.922 Z M3.244,31.791 C3.868,31.344 4.639,31.016 5.473,30.818 C5.545,32.554 6.051,33.78 7.019,34.516 C7.48,34.863 7.353,35.476 6.763,37.029 C6.716,37.153 6.669,37.279 6.622,37.406 L3.189,35.396 C2.423,34.945 2.001,34.348 2.001,33.717 C2.001,33.063 2.455,32.359 3.244,31.791 Z M45.41,58.675 C45.396,58.74 45.389,58.808 45.389,58.877 C45.389,59.532 44.938,60.236 44.153,60.808 C42.27,62.173 39.073,62.395 37.174,61.294 L3.189,41.396 C2.423,40.945 2.001,40.348 2.001,39.718 L2.001,37.004 C2.06,37.042 2.114,37.084 2.176,37.12 L6.105,39.421 C6.057,40.018 6.134,40.608 6.46,41.163 C7.021,42.118 8.17,42.712 9.973,42.976 C10.389,43.038 10.793,43.069 11.197,43.069 C11.284,43.069 11.373,43.06 11.46,43.057 L11.46,44.496 C11.46,45.049 11.908,45.496 12.46,45.496 L16.075,45.496 C17.285,48.22 20.28,51.409 23.682,52.491 C25.329,53.014 26.922,52.992 28.379,52.457 L36.168,57.02 C37.302,57.677 38.706,57.999 40.141,57.999 C41.994,57.999 43.896,57.463 45.326,56.426 C45.356,56.404 45.381,56.378 45.411,56.356 L45.411,58.675 L45.41,58.675 Z M30.428,51.34 C33.265,49.594 37.043,50.668 37.606,51.028 C38.827,52.005 41.535,53.924 44.518,54.508 C44.406,54.612 44.286,54.711 44.154,54.807 C42.271,56.172 39.073,56.396 37.176,55.293 L30.428,51.34 Z M50.547,50.192 C49.603,51.609 48.454,52.405 47.038,52.625 C43.74,53.135 39.942,50.336 38.852,49.464 C37.948,48.745 32.728,47.192 28.914,49.936 C27.558,50.915 26.002,51.134 24.287,50.587 C21.791,49.793 19.515,47.562 18.328,45.498 L33.562,45.498 L36.167,47.023 C37.301,47.681 38.705,48 40.14,48 C41.994,48 43.897,47.465 45.328,46.427 C45.721,46.142 46.055,45.828 46.339,45.498 L52.009,45.498 C51.913,46.94 51.592,48.614 50.547,50.192 Z M47.331,43.498 C47.353,43.371 47.373,43.244 47.382,43.115 C47.401,43.039 47.41,42.96 47.41,42.878 L47.41,39.619 L55.159,34.011 L55.159,43.498 L47.331,43.498 Z M60.673,33.49 C61.528,33.992 61.999,34.666 61.999,35.387 C61.999,35.894 61.758,36.409 61.345,36.896 C61.276,35.791 61.01,34.598 60.511,33.395 L60.673,33.49 Z M60.274,41.161 C60.583,40.778 60.829,40.307 61.01,39.773 L61.726,39.257 C61.823,39.187 61.908,39.112 61.998,39.04 L61.998,41.388 C61.998,42.161 61.483,42.96 60.552,43.637 L53.412,48.803 C53.796,47.639 53.954,46.513 54.012,45.497 L56.158,45.497 C56.711,45.497 57.158,45.05 57.158,44.497 L57.158,42.557 L57.394,42.386 C57.5,42.395 57.607,42.407 57.711,42.407 C58.714,42.407 59.61,41.985 60.274,41.161 Z M57.159,40.321 L57.159,32.563 L57.616,32.232 C59.768,35.394 59.69,38.698 58.717,39.906 C58.565,40.095 58.144,40.608 57.159,40.321 Z M60.553,27.638 L47.41,37.15 L47.41,36.878 L47.39,36.878 C47.39,35.962 47.025,35.097 46.358,34.38 L61.727,23.258 C61.824,23.188 61.909,23.113 61.999,23.041 L61.999,25.389 C61.999,26.162 61.484,26.961 60.553,27.638 Z" id="Shape"></path>
        </g>
    </g>
</svg>