<?xml version="1.0" encoding="UTF-8"?>
<svg width="58px" height="84px" viewBox="0 0 58 84" version="1.1" xmlns="http://www.w3.org/2000/svg" xmlns:xlink="http://www.w3.org/1999/xlink">
    <!-- Generator: Sketch 49.3 (51167) - http://www.bohemiancoding.com/sketch -->
    <title>noun_1701220_cc</title>
    <desc>Created with Sketch.</desc>
    <defs></defs>
    <g id="Page-1" stroke="none" stroke-width="1" fill="none" fill-rule="evenodd">
        <g id="noun_1701220_cc" fill="#000000" fill-rule="nonzero">
            <path d="M25.4429436,27.9282455 L31.961998,14.2829151 L4.6255112,14.2829151 L6.0347252,27.9282455 L25.4429436,27.9282455 Z M30.7590103,69.2996063 C30.7590103,69.1964874 30.7704658,69.0933761 30.7933807,68.9902649 L34.6429443,31.9152947 L6.4586353,31.9152947 L10.3082008,69.013176 C10.4685993,70.1245118 10.7893962,71.4764405 12.6339798,71.4764405 L28.4676018,71.4764405 C29.7393341,71.4764404 30.6215248,70.6400757 30.7590103,69.2996063 Z M34.7460594,69.4141769 L33.4514122,81.8908844 C33.3483009,82.92202 32.4775658,83.6781845 31.4693451,83.6781845 L9.6322346,83.6781845 C8.5552731,83.6781845 7.6730824,82.8303604 7.63871,81.7534027 L0.4436912,12.4956207 C0.317665,11.3499164 1.1425704,10.3760681 2.4143028,10.3073253 L2.4143028,10.2958698 L33.8638687,10.2958698 L38.0800552,1.4624939 C38.6758232,0.1907635 40.3714637,-0.1071196 41.4025955,1.0271273 L56.984169,17.1128044 C58.8058319,19.0032158 55.9530334,21.7643604 54.1428223,19.8854065 L40.4402046,5.7588806 L38.274826,10.2958679 C39.8673553,10.2958679 40.8526573,11.1551456 40.6464309,12.6445598 L34.7460594,69.4141769 Z M30.1403313,75.2343521 C28.6738282,75.6468048 12.4277535,75.6468048 10.9612522,75.2343521 L11.4195328,79.7025909 L29.6820488,79.7025909 L30.1403313,75.2343521 Z M36.3729591,14.2829151 L29.8539047,27.9282455 L35.055397,27.9282455 L36.4760704,14.2829151 L36.3729591,14.2829151 Z" id="Shape"></path>
        </g>
    </g>
</svg>