<?xml version="1.0" encoding="UTF-8"?>
<svg width="86px" height="80px" viewBox="0 0 86 80" version="1.1" xmlns="http://www.w3.org/2000/svg" xmlns:xlink="http://www.w3.org/1999/xlink">
    <!-- Generator: Sketch 49.3 (51167) - http://www.bohemiancoding.com/sketch -->
    <title>noun_1702705_cc</title>
    <desc>Created with Sketch.</desc>
    <defs></defs>
    <g id="Page-1" stroke="none" stroke-width="1" fill="none" fill-rule="evenodd">
        <g id="noun_1702705_cc" transform="translate(0.000000, -1.000000)" fill="#000000" fill-rule="nonzero">
            <g id="Group" transform="translate(0.000000, 0.637820)">
                <path d="M50.90625,2.36678 C49.90284,0.68694 48.07426,0.32605 46.40625,0.77281 C44.53738,1.29229 42.67927,2.72018 41.125,4.52332 C39.59906,3.70623 37.89489,3.21342 36.3125,3.77322 C34.76168,4.52335 33.89753,5.95135 33.5,7.93004 C31.84017,6.30089 30.26543,4.50207 28.78125,2.71058 C28.17479,2.22419 27.90104,2.37876 27.34375,2.61688 C25.54934,4.18721 24.05873,5.79301 22.8125,7.43004 C21.04399,6.58431 19.33531,5.87316 17.5,5.92984 C15.59985,5.98854 13.71465,7.07953 11.78125,9.21154 C9.76411,8.03575 7.64023,7.66353 5.96875,8.64896 C4.20231,9.69036 3.22876,11.94137 3.09375,14.80605 C2.0975798,15.4534 1.3389298,16.38508 0.9374998,17.52518 C-0.2064602,21.56785 0.5402998,25.65831 1.8124998,28.6517 C1.5132798,28.43835 1.1475998,28.43835 0.8437498,28.37046 C0.3741798,28.44476 -0.0057902,28.89516 -2e-07,29.3706 C0.0239998,31.25493 0.2751998,34.04404 0.9374998,36.46532 C1.2686498,37.67595 1.6876298,38.7844 2.3124998,39.6845 C2.7654598,40.337 3.4383,40.7974 4.1875,41.0597 C5.85342,50.9989 9.00085,60.6032 13.625,67.8446 C18.32486,75.2046 24.63202,80.1939 32.3125,80.2213 C40.00239,80.4489 49,80.3647 54.624954,80.2213 C62.668454,80.2213 69.240754,75.5402 73.968704,68.2822 C78.598084,61.1755 81.578774,51.5459 82.874954,41.091 C83.559484,40.8541 84.174414,40.4527 84.562454,39.872 C85.117434,39.0416 85.390744,38.0361 85.593704,36.90288 C85.999724,34.63631 86.000004,31.86362 86.000004,29.37055 C86.007004,28.79051 85.416634,28.2798 84.843754,28.37041 C85.428384,25.80843 84.122954,23.69928 82.312504,22.30708 C83.144464,21.29367 83.693704,20.29051 83.656254,19.30667 C83.607954,18.03671 82.673934,17.0822 81.562504,16.6188 C79.643854,15.81883 76.991264,16.13998 74.500004,17.24389 C74.003824,15.08809 73.363834,12.99201 71.937504,11.74313 C71.101804,11.0114 69.863104,10.67092 68.656254,11.05554 C67.823444,11.32096 66.991784,11.96107 66.125004,12.77452 C64.864024,9.15141 62.400284,7.17926 59.843754,6.14862 C60.305244,4.95982 60.523974,3.87396 60.281254,2.92943 C59.970744,1.72109 58.985934,0.84033 57.843754,0.52285 C55.397034,-0.09658 52.720994,1.19394 50.90625,2.3668 L50.90625,2.36678 Z M57.312454,2.46048 C57.945644,2.63649 58.210364,2.91049 58.343704,3.42936 C58.477044,3.94824 58.412404,4.86113 57.718704,6.211 C57.468274,6.66027 57.667904,7.28352 58.093704,7.55493 C54.346194,8.40626 52.04425,9.90238 49.9062,11.27419 C47.81329,10.3427 45.32409,9.85753 42.6562,10.49283 C40.90864,10.90898 39.12123,11.80113 37.4062,13.24321 L34.9687,10.27405 C35.33169,8.37445 35.47171,6.65987 36.99995,5.64842 C37.94581,5.3138 39.46094,5.64742 40.81245,6.52354 C41.22797,6.80016 41.84986,6.6989 42.1562,6.30476 C43.56312,4.47975 45.46984,3.11846 46.93745,2.71052 C48.43551,2.33378 49.0143,2.96492 49.49995,3.96069 C49.64967,4.61493 50.56654,4.93858 51.0937,4.52326 C53.086454,3.17176 55.039864,2.18062 57.312454,2.46048 Z M28.49995,5.55471 L32.4687,10.43037 C32.31766,10.39387 32.16218,10.36787 31.99995,10.36787 C30.89538,10.36787 29.99995,11.26343 29.99995,12.36815 C29.99995,13.47287 30.89538,14.36842 31.99995,14.36842 C33.10452,14.36842 33.99995,13.47287 33.99995,12.36815 C33.99995,12.33645 34.00095,12.30575 33.99995,12.27445 L35.93745,14.64977 C35.42838,15.19375 34.9252,15.80479 34.43745,16.46252 C33.3676,16.21849 32.44764,16.51802 31.43745,16.99384 C30.63345,17.42421 29.79864,18.11803 28.9062,18.99412 C26.86707,14.44975 27.62347,9.38344 28.49995,5.55473 L28.49995,5.55471 Z M26.18745,6.77362 C25.22935,11.84479 25.47905,16.44248 27.43745,20.49425 C25.50754,20.64965 23.97085,21.42941 23.0312,22.74456 C22.11271,24.03009 21.64877,25.66784 21.2187,27.46396 C20.78316,27.47756 20.35736,27.53736 19.93745,27.58897 C19.29489,19.59132 20.37154,13.96874 24.3437,8.7739 C24.99447,8.09435 25.61564,7.42536 26.18745,6.77362 Z M17.56245,7.93003 C18.7453,7.89353 20.09076,8.36994 21.6562,9.08644 C20.20105,11.35202 19.17957,13.72418 18.56245,16.30618 C15.32639,16.00693 12.02637,15.6161 8.81245,15.36855 C8.47827,15.43105 8.18417,15.67616 8.06245,15.99364 C7.03684,18.55802 6.4793,20.76686 6.74995,23.33839 C6.99511,25.66774 7.92605,28.27758 9.5937,31.74579 C8.03425,31.20895 6.45851,30.5994 4.8437,29.93304 C2.3600498,27.14052 1.6311998,21.6807 2.8124498,18.18143 C3.14054,17.24962 3.67708,16.61354 4.43745,16.24367 C4.76539,16.08421 4.99104,15.73314 4.99995,15.36855 C4.99995,12.62957 5.90956,11.04197 6.99995,10.39912 C8.09034,9.75627 9.59008,9.82408 11.4062,11.14922 C11.81146,11.45792 12.45553,11.38472 12.7812,10.99295 C14.70749,8.6504 16.13169,7.97422 17.56245,7.93003 Z M61.906204,9.36768 C63.221214,10.35061 64.294734,11.81872 64.812454,14.33711 C64.944684,15.08106 66.076114,15.38416 66.562454,14.80592 C67.764504,13.40259 68.649284,13.16332 69.281204,12.96192 C69.913124,12.76052 70.192534,12.86462 70.624954,13.24321 C71.489794,14.00045 72.349704,16.34093 72.843704,18.74396 C72.977334,19.35257 73.770014,19.70679 74.312454,19.4003 C76.589684,18.07103 79.453334,17.90903 80.781204,18.46267 C81.445144,18.7395 81.641144,19.00475 81.656204,19.4003 C81.671304,19.79586 81.379344,20.61522 80.218704,21.74437 C79.785594,22.16244 79.867644,22.98307 80.374954,23.30709 C83.020174,24.9408 83.311254,27.12622 82.281204,29.40167 C75.448614,32.13549 69.257084,33.89359 62.718704,34.96493 C65.200664,28.84304 65.946464,20.86085 64.999954,15.18097 C64.486104,14.38926 64.180954,14.31104 63.437454,14.52463 L61.000004,16.18117 C60.905304,15.16455 60.041224,14.36842 59.000004,14.36842 C57.895434,14.36842 57.000004,15.26398 57.000004,16.3687 C57.000004,17.15765 57.461574,17.82462 58.125004,18.15019 L42.625,28.71414 C42.79415,28.24204 42.95134,27.77705 43.03125,27.3702 C43.38843,25.07868 42.28448,23.48465 40.15625,23.18213 C39.34173,23.0753 38.15822,23.19213 37,23.30715 C37.10113,22.02451 37.20087,20.73525 37,19.74416 C36.83261,18.91824 36.54589,18.17674 36.09375,17.58761 C38.40409,14.49222 40.81281,13.00507 43.09375,12.46191 C45.46268,11.8978 47.74139,12.33258 49.5625,13.24327 C49.8756,13.39929 50.27126,13.37456 50.5625,13.18077 C54.239474,10.62981 57.845134,9.15961 61.906204,9.3677 L61.906204,9.36768 Z M55.000004,11.36801 C53.895434,11.36801 53.000004,12.26356 53.000004,13.36829 C53.000004,14.47301 53.895434,15.36856 55.000004,15.36856 C56.104574,15.36856 57.000004,14.47301 57.000004,13.36829 C57.000004,12.26356 56.104574,11.36801 55.000004,11.36801 Z M45,14.36842 C43.89543,14.36842 43,15.26398 43,16.3687 C43,17.47342 43.89543,18.36897 45,18.36897 C46.10457,18.36897 47,17.47342 47,16.3687 C47,15.26398 46.10457,14.36842 45,14.36842 Z M53.000004,16.3687 C51.89543,16.3687 51,17.26425 51,18.36897 C51,19.47369 51.89543,20.36924 53.000004,20.36924 C54.104574,20.36924 55.000004,19.47369 55.000004,18.36897 C55.000004,17.26425 54.104574,16.3687 53.000004,16.3687 Z M62.875004,17.30633 C61.977964,24.68114 56.157714,30.76681 50.75,36.18391 C48.94594,36.26611 47.09245,36.29179 45.15625,36.30893 C45.654,35.31635 46.27196,33.96569 46.125,32.49591 C45.98162,31.06527 45.27437,30.57566 44.3125,29.99556 L52.125,24.65108 C52.04,24.87317 52,25.11791 52,25.36993 C52,26.47465 52.895434,27.3702 54.000004,27.3702 C55.104574,27.3702 56.000004,26.47465 56.000004,25.36993 C56.000004,24.26521 55.104574,23.36966 54.000004,23.36966 L55.343754,22.46328 C55.703164,22.99535 56.309644,23.36966 57.000004,23.36966 C58.104574,23.36966 59.000004,22.4741 59.000004,21.36938 C59.000004,20.93995 58.855294,20.53887 58.625004,20.21297 L62.875004,17.30633 Z M41,17.36883 C39.89543,17.36883 39,18.26439 39,19.36911 C39,20.47383 39.89543,21.36938 41,21.36938 C42.10457,21.36938 43,20.47383 43,19.36911 C43,18.26439 42.10457,17.36883 41,17.36883 Z M10.53125,17.52511 L18.1875,18.27521 C17.71847,21.20136 17.67079,24.39624 17.96875,27.96403 C17.00082,28.21533 16.04379,28.56778 15.09375,28.96417 L10.53125,17.52511 Z M34.15625,18.49399 C34.47843,18.66974 34.83033,19.15912 35.03125,20.15046 C35.23217,21.14181 35.23864,22.54249 35.00005,24.21352 C34.91325,24.83314 35.53938,25.44241 36.1563,25.33868 C37.8601,25.09524 39.08189,25.04712 39.87505,25.15115 C41.23026,25.34865 41.10285,26.06192 41.0625,26.9639 C40.91414,27.71929 40.55396,28.76673 40.0625,29.99556 C39.81685,30.60307 40.34482,31.37753 41,31.37075 C42.43968,31.35205 43.58419,31.60576 44.125,32.71469 C44.2,33.46459 43.58671,35.31179 43.09375,36.34018 C31.88538,36.32668 22.38862,35.77034 12.0625,32.58967 C15.52232,30.85269 18.4833,29.37048 22,29.37048 C22.44773,29.36748 22.87078,29.02607 22.96875,28.58912 C23.42854,26.56413 23.92874,24.91922 24.65625,23.90098 C25.38376,22.88274 26.24074,22.36952 28,22.36952 C28.28828,22.36052 28.56987,22.21975 28.75,21.99447 C30.20023,20.3023 31.4709,19.27595 32.40625,18.77528 C33.10629,18.42674 33.64746,18.28211 34.15625,18.49399 Z M9.09375,19.33785 L13.25,29.77678 C12.56066,30.10557 11.84525,30.44663 11.125,30.80817 C9.74781,27.68932 8.93791,24.90504 8.75,23.11962 C8.61262,21.81437 8.756,20.60142 9.09375,19.33785 Z M46,19.36915 C44.89543,19.36915 44,20.2647 44,21.36942 C44,22.47414 44.89543,23.3697 46,23.3697 C47.10457,23.3697 48,22.47414 48,21.36942 C48,20.2647 47.10457,19.36915 46,19.36915 Z M63.125004,23.65098 C62.805944,27.73071 61.920754,31.99495 60.375004,35.34008 C58.229444,35.63337 56.031334,35.83654 53.750004,35.99642 C57.309874,32.38082 60.985004,28.35573 63.125004,23.65098 Z M50,29.37052 C48.89543,29.37052 48,30.26607 48,31.37079 C48,32.47551 48.89543,33.37106 50,33.37106 C51.10457,33.37106 52,32.47551 52,31.37079 C52,30.26607 51.10457,29.37052 50,29.37052 Z M83.937504,30.80821 C83.923404,32.84046 83.907204,34.95191 83.625004,36.52775 C83.448444,37.5136 83.173944,38.2995 82.875004,38.7468 C71.475694,44.6304 55.792974,46.306 42.90625,46.3728 C30,46.3598 17.32479,45.0784 3.96875,38.5592 C3.55713,37.96626 3.17064,37.01468 2.8749998,35.93387 C2.4239698,34.28496 2.3240298,32.50526 2.2187498,30.90193 C16.78267,37.2706 28.84442,38.3405 43.5,38.3405 C59.224124,38.3895 72.561414,35.37075 83.937504,30.80821 Z M6.34375,41.9034 C18.80876,46.4822 30.46557,48.3731 42.90625,48.3731 C55.526164,48.3731 68.961464,46.5267 80.750004,41.9347 C79.411934,51.7404 76.520044,60.6811 72.281254,67.1882 C67.807164,74.0564 61.931504,78.1966 54.687504,78.2209 C51,78.3644 39,78.3644 32.375,78.2209 C25.52726,78.2209 19.81211,73.797 15.3125,66.7506 C11.07727,60.1182 8.02759,51.2121 6.34375,41.9034 Z" id="Shape"></path>
            </g>
        </g>
    </g>
</svg>